# xmcd CD database file
#
# Track frame offsets:
#	182
#	18610
#	33430
#	52940
#
# Disc length: 1003 seconds
#
# Revision: 0
# Processed by: cddbd v1.5.1PL0 Copyright (c) Steve Scherf et al.
# Submitted via: CDex 1.50beta10
#
DISCID=2903e904
DTITLE=The Raincoats - Extended Play
DYEAR=1900
DGENRE=Rock
TTITLE0=Don't Be Mean
TTITLE1=We Smile
TTITLE2=No One's Little Girl
TTITLE3=Shouting Out Loud
EXTD=
EXTT0=
EXTT1=
EXTT2=
EXTT3=
PLAYORDER=
